<svg width="69" height="60" viewBox="0 0 69 60" fill="none" xmlns="http://www.w3.org/2000/svg">
<path d="M39.9505 23.6016C39.9505 21.0117 38.0818 19.582 34.7995 19.582H28.762V27.9258H33.8531C37.7823 27.9141 39.9505 26.3672 39.9505 23.6016ZM61.9323 22.1016C60.7943 18.4805 60.6266 14.0391 60.7583 10.6055C60.8901 7.03125 58.0391 3.75 54.2057 3.75H14.8182C10.9729 3.75 8.13386 7.04297 8.26563 10.6055C8.38542 14.0391 8.22969 18.4805 7.09167 22.1016C5.94167 25.7344 4.01302 28.0312 0.838543 28.3242V31.6641C4.00104 31.957 5.94167 34.2539 7.09167 37.8867C8.22969 41.5078 8.3974 45.9492 8.26563 49.3828C8.13386 52.957 10.9849 56.2383 14.8182 56.2383H54.1937C58.0391 56.2383 60.8781 52.9453 60.7464 49.3828C60.6266 45.9492 60.7823 41.5078 61.9203 37.8867C63.0703 34.2539 64.999 31.957 68.1615 31.6641V28.3242C65.0109 28.0312 63.0703 25.7344 61.9323 22.1016ZM35.9615 43.957H24.2339V16.0312H35.9016C41.0885 16.0312 44.4906 18.7734 44.4906 22.9922C44.4906 25.957 42.2026 28.6055 39.2797 29.0625V29.2148C43.2568 29.6367 45.9281 32.332 45.9281 36.0469C45.9281 40.9805 42.1786 43.957 35.9615 43.957ZM34.7635 31.2188H28.762V40.4062H35.0271C39.124 40.4062 41.2922 38.8008 41.2922 35.7773C41.2922 32.7656 39.0641 31.2188 34.7635 31.2188Z" fill="black"/>
</svg>
