<svg width="50" height="62" viewBox="0 0 50 62" fill="none" xmlns="http://www.w3.org/2000/svg">
<path d="M0 3.875V58.125H50V3.875H0ZM27.2098 46.1852C27.2098 51.4648 24.3527 53.8746 20.1897 53.8746C16.4286 53.8746 14.2522 51.7676 13.1362 49.2125L16.9643 46.7059C17.7009 48.1227 18.3705 49.3215 19.9888 49.3215C21.529 49.3215 22.5112 48.6676 22.5112 46.1125V28.784H27.2098V46.1852ZM38.3259 53.8746C33.9621 53.8746 31.1384 51.6223 29.7656 48.6676L33.5938 46.2699C34.5982 48.05 35.9152 49.3699 38.2254 49.3699C40.1674 49.3699 41.4174 48.3164 41.4174 46.8512C41.4174 45.1074 40.1451 44.4898 37.9911 43.4605L36.8192 42.9156C33.4263 41.3535 31.183 39.3797 31.183 35.2262C31.183 31.3996 33.8728 28.4934 38.058 28.4934C41.0491 28.4934 43.192 29.6195 44.7321 32.5742L41.0714 35.1172C40.2679 33.5551 39.3973 32.9375 38.0469 32.9375C36.6741 32.9375 35.8036 33.882 35.8036 35.1172C35.8036 36.643 36.6741 37.2605 38.6942 38.2172L39.8661 38.7621C43.8616 40.6148 46.1049 42.516 46.1049 46.7785C46.1049 51.3559 42.779 53.8746 38.3259 53.8746Z" fill="black"/>
</svg>
