<svg width="65" height="50" viewBox="0 0 65 50" fill="none" xmlns="http://www.w3.org/2000/svg">
<path d="M19.5 6.25C8.73438 6.25 0 14.6484 0 25C0 35.3516 8.73438 43.75 19.5 43.75H45.5C56.2656 43.75 65 35.3516 65 25C65 14.6484 56.2656 6.25 45.5 6.25H19.5ZM50.375 24.2188C48.1305 24.2188 46.3125 22.4707 46.3125 20.3125C46.3125 18.1543 48.1305 16.4062 50.375 16.4062C52.6195 16.4062 54.4375 18.1543 54.4375 20.3125C54.4375 22.4707 52.6195 24.2188 50.375 24.2188ZM47.9375 29.6875C47.9375 31.8457 46.1195 33.5938 43.875 33.5938C41.6305 33.5938 39.8125 31.8457 39.8125 29.6875C39.8125 27.5293 41.6305 25.7812 43.875 25.7812C46.1195 25.7812 47.9375 27.5293 47.9375 29.6875ZM17.0625 19.5312C17.0625 18.2324 18.1492 17.1875 19.5 17.1875C20.8508 17.1875 21.9375 18.2324 21.9375 19.5312V22.6562H25.1875C26.5383 22.6562 27.625 23.7012 27.625 25C27.625 26.2988 26.5383 27.3438 25.1875 27.3438H21.9375V30.4688C21.9375 31.7676 20.8508 32.8125 19.5 32.8125C18.1492 32.8125 17.0625 31.7676 17.0625 30.4688V27.3438H13.8125C12.4617 27.3438 11.375 26.2988 11.375 25C11.375 23.7012 12.4617 22.6562 13.8125 22.6562H17.0625V19.5312Z" fill="black"/>
</svg>
