<svg width="50" height="50" viewBox="0 0 50 50" fill="none" xmlns="http://www.w3.org/2000/svg">
<path d="M25 7.8125C14.6387 7.8125 6.09375 15.5664 4.84375 25.5859C5.76172 25.2148 6.75781 25 7.8125 25C10.4004 25 12.5 27.0996 12.5 29.6875V42.1875C12.5 44.7754 10.4004 46.875 7.8125 46.875C3.49609 46.875 0 43.3789 0 39.0625V37.5V32.8125V28.125C0 14.3164 11.1914 3.125 25 3.125C38.8086 3.125 50 14.3164 50 28.125V32.8125V37.5V39.0625C50 43.3789 46.5039 46.875 42.1875 46.875C39.5996 46.875 37.5 44.7754 37.5 42.1875V29.6875C37.5 27.0996 39.5996 25 42.1875 25C43.2422 25 44.2383 25.2051 45.1562 25.5859C43.9062 15.5664 35.3613 7.8125 25 7.8125Z" fill="black"/>
</svg>
