<svg width="50" height="50" viewBox="0 0 50 50" fill="none" xmlns="http://www.w3.org/2000/svg">
<g clip-path="url(#clip0_7_51)">
<path d="M17.2949 22.3242L20.3027 31.25H29.7266L32.6191 22.3262L25 16.8066L17.2949 22.3242ZM24.9121 0C11.1914 0 0 11.1914 0 25C0 38.8086 11.1914 50 25 50C38.8086 50 49.9121 38.8086 49.9121 25.0879C49.9121 11.3672 38.8086 0 24.9121 0ZM42.5 35.2637L32.3535 35.1096L29.3584 44.8283C27.9492 45.1367 26.4941 45.3125 25 45.3125C23.5058 45.3125 22.0517 45.1394 20.6484 44.8311L17.6562 35.1172L7.50292 35.2637C6.04491 32.7881 5.08202 29.9893 4.78808 26.9902L13.1152 21.1328L9.83397 11.5332C11.7725 9.35156 14.1621 7.58301 16.8691 6.39453L25 12.5L33.1338 6.39941C35.8408 7.58789 38.2305 9.35547 40.1689 11.5381L36.8848 21.1328L45.208 26.9893C44.834 29.9902 43.9551 32.793 42.5 35.2637Z" fill="black"/>
</g>
<defs>
<clipPath id="clip0_7_51">
<rect width="50" height="50" fill="white"/>
</clipPath>
</defs>
</svg>
