<svg width="50" height="45" viewBox="0 0 50 45" fill="none" xmlns="http://www.w3.org/2000/svg">
<g clip-path="url(#clip0_7_59)">
<path d="M30.6875 0.105587C29.3594 -0.325077 27.9766 0.54504 27.5938 2.03918L17.5938 41.4142C17.2109 42.9083 17.9844 44.464 19.3125 44.8946C20.6406 45.3253 22.0234 44.4552 22.4062 42.9611L32.4062 3.58606C32.7891 2.09192 32.0156 0.536251 30.6875 0.105587ZM36.9844 10.6613C36.0078 11.7599 36.0078 13.5441 36.9844 14.6427L43.9609 22.5001L36.9766 30.3575C36 31.4562 36 33.2404 36.9766 34.339C37.9531 35.4376 39.5391 35.4376 40.5156 34.339L49.2656 24.4952C50.2422 23.3966 50.2422 21.6124 49.2656 20.5138L40.5156 10.67C39.5391 9.57141 37.9531 9.57141 36.9766 10.67L36.9844 10.6613ZM13.0234 10.6613C12.0469 9.56262 10.4609 9.56262 9.48438 10.6613L0.734375 20.505C-0.242188 21.6036 -0.242188 23.3878 0.734375 24.4864L9.48438 34.3302C10.4609 35.4288 12.0469 35.4288 13.0234 34.3302C14 33.2316 14 31.4474 13.0234 30.3488L6.03906 22.5001L13.0234 14.6427C14 13.5441 14 11.7599 13.0234 10.6613Z" fill="black"/>
</g>
<defs>
<clipPath id="clip0_7_59">
<rect width="50" height="45" fill="white"/>
</clipPath>
</defs>
</svg>
