<svg width="62" height="62" viewBox="0 0 62 62" fill="none" xmlns="http://www.w3.org/2000/svg">
<path d="M50.6414 21.4578C49.9875 21.2398 49.3336 21.0339 48.6797 20.8402C48.7887 20.3921 48.8855 19.9441 48.9824 19.496C50.4719 12.2789 49.491 6.47847 46.1852 4.56518C43.0004 2.73667 37.8055 4.63784 32.55 9.21518C32.0293 9.66323 31.5207 10.1355 31.0363 10.6078C30.7094 10.2929 30.3703 9.97808 30.0312 9.67534C24.5215 4.78315 18.9996 2.72456 15.6938 4.64995C12.5211 6.49058 11.5766 11.9519 12.9086 18.7816C13.0418 19.4597 13.1871 20.1257 13.3566 20.8039C12.5816 21.0218 11.8187 21.264 11.1043 21.5183C4.63789 23.7585 0 27.2945 0 30.9515C0 34.7296 4.94063 38.5199 11.6613 40.8207C12.2063 41.0023 12.7512 41.1839 13.3082 41.3414C13.1266 42.0679 12.9691 42.7824 12.8238 43.521C11.5523 50.2417 12.5453 55.5699 15.718 57.3984C18.9875 59.2874 24.4852 57.3499 29.8375 52.6636C30.2613 52.2882 30.6852 51.9007 31.109 51.489C31.6418 52.0097 32.1988 52.5062 32.7559 52.9906C37.9387 57.4468 43.0609 59.2511 46.2215 57.4226C49.491 55.5335 50.5566 49.8058 49.1762 42.8308C49.0672 42.298 48.9461 41.7531 48.8129 41.196C49.2004 41.0871 49.5758 40.966 49.9512 40.8449C56.9383 38.532 62 34.7902 62 30.9515C62 27.2824 57.2289 23.7222 50.6414 21.4578ZM34.2574 11.1769C38.7621 7.25347 42.9641 5.71558 44.8773 6.81753C46.9238 7.99214 47.7109 12.739 46.4273 18.9753C46.3426 19.3871 46.2578 19.7867 46.1488 20.1863C43.4605 19.5808 40.7359 19.1449 37.9992 18.9027C36.425 16.6503 34.7055 14.4949 32.8406 12.4726C33.3129 12.0246 33.773 11.6007 34.2574 11.1769ZM20.2469 37.2363C20.8645 38.2898 21.4941 39.3433 22.1602 40.3726C20.2711 40.1667 18.3941 39.864 16.5414 39.4644C17.0742 37.7206 17.7402 35.9164 18.5152 34.0757C19.0723 35.1414 19.6414 36.1949 20.2469 37.2363ZM16.5777 22.6687C18.3215 22.2812 20.1742 21.9664 22.0996 21.7242C21.4578 22.7292 20.8281 23.7585 20.2348 24.7999C19.6414 25.8292 19.0602 26.8828 18.5152 27.9484C17.7523 26.1441 17.1105 24.3761 16.5777 22.6687ZM19.8957 31.0121C20.6949 29.341 21.5668 27.7062 22.4871 26.0957C23.4074 24.4851 24.4004 22.923 25.4418 21.3851C27.2582 21.2519 29.1109 21.1792 31 21.1792C32.8891 21.1792 34.7539 21.2519 36.5582 21.3851C37.5875 22.9109 38.5684 24.473 39.5008 26.0714C40.4332 27.6699 41.3051 29.3046 42.1285 30.9636C41.3172 32.6347 40.4453 34.2816 39.5129 35.9042C38.5926 37.5148 37.6117 39.0769 36.5824 40.6269C34.7781 40.7601 32.9012 40.8207 31 40.8207C29.0988 40.8207 27.2582 40.7601 25.4781 40.6511C24.4246 39.1132 23.4316 37.539 22.4992 35.9285C21.5668 34.3179 20.707 32.6832 19.8957 31.0121ZM41.7652 37.2121C42.3828 36.1464 42.9641 35.0687 43.5332 33.9789C44.3082 35.7347 44.9863 37.5148 45.5797 39.3433C43.7027 39.7671 41.8016 40.0941 39.8883 40.3121C40.5422 39.2949 41.1598 38.2535 41.7652 37.2121ZM43.509 27.9484C42.9398 26.8828 42.3586 25.8171 41.7531 24.7757C41.1598 23.7464 40.5422 22.7292 39.9004 21.7242C41.85 21.9664 43.7148 22.2933 45.4586 22.6929C44.9016 24.4851 44.2477 26.2289 43.509 27.9484ZM31.0242 14.3253C32.2957 15.7058 33.4945 17.1589 34.6086 18.6605C32.2109 18.5515 29.8012 18.5515 27.4035 18.6605C28.5902 17.0984 29.8133 15.6453 31.0242 14.3253ZM16.9773 6.90229C19.0117 5.71558 23.5285 7.41089 28.2875 11.6249C28.5902 11.8914 28.893 12.182 29.2078 12.4726C27.3309 14.4949 25.5992 16.6503 24.0129 18.9027C21.2762 19.1449 18.5637 19.5687 15.8754 20.1621C15.718 19.5445 15.5848 18.9148 15.4516 18.2851C14.3133 12.4242 15.0641 8.00425 16.9773 6.90229ZM14.0105 38.8226C13.502 38.6773 13.0055 38.5199 12.509 38.3503C9.92969 37.539 6.99922 36.2554 4.88008 34.5722C3.65703 33.7246 2.83359 32.4167 2.60352 30.9515C2.60352 28.7355 6.43008 25.9019 11.952 23.9765C12.6422 23.7343 13.3445 23.5164 14.0469 23.3105C14.8703 25.9382 15.8633 28.5175 17.0137 31.0121C15.8512 33.5429 14.8461 36.1585 14.0105 38.8226ZM28.1301 50.6898C26.132 52.5183 23.8191 53.9714 21.3004 54.9644C19.9562 55.6062 18.4062 55.6667 17.0258 55.1218C15.1004 54.0078 14.3012 49.7332 15.391 43.9812C15.5242 43.3031 15.6695 42.6249 15.8391 41.9589C18.5516 42.5402 21.2883 42.9398 24.0613 43.1456C25.6598 45.4101 27.4156 47.5777 29.2926 49.6121C28.9051 49.9874 28.5176 50.3507 28.1301 50.6898ZM31.0969 47.7472C29.8617 46.4152 28.6266 44.9378 27.4277 43.3515C28.5902 43.3999 29.7891 43.4242 31 43.4242C32.2473 43.4242 33.4703 43.3999 34.6812 43.3394C33.5672 44.8773 32.3684 46.3425 31.0969 47.7472ZM46.9238 51.38C46.8148 52.8574 46.0883 54.2378 44.9258 55.1703C43.0004 56.2843 38.8953 54.8312 34.4633 51.0289C33.9547 50.5929 33.4461 50.1206 32.9254 49.6363C34.7781 47.5898 36.4855 45.4222 38.0355 43.1456C40.8086 42.9156 43.5695 42.4917 46.2941 41.8742C46.4152 42.3706 46.5242 42.8671 46.6211 43.3515C47.2145 45.9671 47.3113 48.6917 46.9238 51.38ZM49.1277 38.3624C48.7887 38.4714 48.4496 38.5804 48.0984 38.6773C47.2508 36.0374 46.2094 33.4582 45.0105 30.9515C46.173 28.4812 47.1539 25.9382 47.9773 23.3347C48.607 23.5164 49.2125 23.7101 49.7938 23.9039C55.4367 25.8414 59.3965 28.7234 59.3965 30.9273C59.3965 33.3007 55.1703 36.3644 49.1277 38.3624ZM31 36.546C34.0637 36.546 36.5461 34.0636 36.5461 30.9999C36.5461 27.9363 34.0637 25.4539 31 25.4539C27.9363 25.4539 25.4539 27.9363 25.4539 30.9999C25.4539 34.0636 27.9363 36.546 31 36.546Z" fill="black"/>
</svg>
