<svg width="75" height="62" viewBox="0 0 75 62" fill="none" xmlns="http://www.w3.org/2000/svg">
<path d="M35.3717 45.8848C35.3014 46.0156 35.3366 45.9575 35.3717 45.8848V45.8848ZM64.5667 35.3497C62.2097 35.3489 59.8841 35.9082 57.7698 36.9844C57.0784 35.5434 56.3635 34.284 56.2463 33.3395C56.1057 32.2376 55.9534 31.5836 56.1174 30.2758C56.2815 28.968 57.0198 27.1153 57.0081 26.9821C56.9963 26.8489 56.844 26.1829 55.3323 26.1708C53.8206 26.1586 52.5198 26.4735 52.3686 26.8852C52.1016 27.6376 51.8939 28.4111 51.7475 29.1981C51.478 30.6149 48.7253 35.6766 47.1667 38.3165C46.651 37.2872 46.2174 36.379 46.1237 35.6524C45.9831 34.5504 45.8307 33.8965 45.9948 32.5887C46.1588 31.2809 46.8971 29.4282 46.8854 29.295C46.8737 29.1618 46.7213 28.4958 45.2108 28.4836C43.7002 28.4715 42.3983 28.7864 42.246 29.1981C42.0936 29.6098 41.9295 30.5786 41.6249 31.511C41.3202 32.4434 37.6534 40.8715 36.6936 43.0633C36.2014 44.1774 35.7795 45.0735 35.4749 45.679C35.428 45.7758 35.3928 45.8364 35.3694 45.8848C35.4045 45.8243 35.428 45.7637 35.428 45.7879C35.1702 46.3086 35.0178 46.5993 35.0178 46.5993V46.6114C34.8186 46.9989 34.596 47.3501 34.4905 47.3501C34.4202 47.3501 34.2678 46.3329 34.5256 44.9403C35.0764 42.0098 36.3772 37.4567 36.3655 37.2993C36.3538 37.2145 36.6116 36.4274 35.51 36.0036C34.4436 35.604 34.0569 36.27 33.9631 36.27C33.8694 36.27 33.7991 36.5122 33.7991 36.5122C33.7991 36.5122 34.9827 31.3778 31.5268 31.3778C29.3706 31.3778 26.3706 33.8239 24.8963 36.0399C23.9706 36.5606 21.9667 37.6868 19.8573 38.8856C19.0487 39.3458 18.2167 39.818 17.4315 40.2661C17.3729 40.2055 17.326 40.145 17.2674 40.0844C13.0733 35.4586 5.32955 32.1891 5.65767 25.977C5.77486 23.7126 6.53658 17.7668 20.5487 10.5497C32.0331 4.64029 41.2147 6.26294 42.7956 9.87154C45.069 15.018 37.8866 24.5965 25.9604 25.977C21.4147 26.4977 19.0252 24.6813 18.4276 24.0032C17.8065 23.2887 17.7127 23.2524 17.4784 23.3856C17.0917 23.6036 17.3377 24.2333 17.4784 24.6086C17.8299 25.5653 19.2948 27.2606 21.7897 28.1083C23.9811 28.8469 29.3108 29.2586 35.7549 26.6793C42.9948 23.7973 48.6303 15.7688 46.978 9.0481C45.2952 2.21841 34.3358 -0.0218225 23.9729 3.78052C17.7983 6.04497 11.121 9.60513 6.31744 14.243C0.611576 19.7649 -0.301315 24.5723 0.0736852 26.5825C1.40845 33.7149 10.9217 38.3649 14.7292 41.804C14.5417 41.9129 14.3659 42.0098 14.2018 42.1067C12.2928 43.0876 5.04009 47.011 3.22486 51.1524C1.17408 55.8508 3.5647 59.2172 5.13384 59.6774C10.0311 61.0821 15.0456 58.5512 17.7397 54.3977C20.4338 50.2442 20.1069 44.8192 18.8647 42.3489C18.853 42.3126 18.8295 42.2883 18.8178 42.252C19.31 41.9493 19.8139 41.6465 20.3178 41.3438C21.2893 40.7504 22.2385 40.2055 23.0706 39.7333C22.6018 41.0411 22.262 42.6153 22.0862 44.8918C21.8752 47.5559 22.9417 51.0071 24.3245 52.3633C24.9338 52.9567 25.671 52.9688 26.128 52.9688C27.7452 52.9688 28.4717 51.5883 29.2792 49.9415C30.2752 47.9313 31.1542 45.5942 31.1542 45.5942C31.1542 45.5942 30.0526 51.9153 33.0643 51.9153C34.1647 51.9153 35.2663 50.4501 35.7596 49.6993V49.7114C35.7596 49.7114 35.7831 49.6629 35.8417 49.5661C35.9588 49.3844 36.0174 49.2754 36.0174 49.2754V49.2391C36.4627 48.452 37.4354 46.6477 38.8991 43.6688C40.7975 39.818 42.6128 35.0106 42.6128 35.0106C42.7882 36.0674 43.0309 37.1111 43.3393 38.1348C43.6674 39.2852 44.3588 40.5446 44.9096 41.7676C44.4643 42.3973 44.1948 42.7606 44.1948 42.7606C44.1956 42.7699 44.1998 42.7785 44.2065 42.7848C43.8549 43.2692 43.4565 43.7899 43.0463 44.2985C41.5475 46.1391 39.7651 48.2461 39.5307 48.8516C39.2495 49.5661 39.3198 50.0989 39.8588 50.5106C40.2573 50.8254 40.9604 50.8739 41.6975 50.8133C43.0452 50.7165 43.9944 50.3774 44.4514 50.1594C45.294 49.8472 46.0903 49.4152 46.8174 48.8758C48.2823 47.7618 49.1729 46.1633 49.0909 44.0563C49.044 42.8938 48.6807 41.7313 48.2354 40.6415C48.3643 40.4477 48.5049 40.2418 48.6338 40.036C50.953 36.5364 52.746 32.6953 52.746 32.6953C52.9214 33.7521 53.1641 34.7957 53.4725 35.8195C53.7538 36.8004 54.3034 37.8781 54.8073 38.9316C52.6288 40.7601 51.2811 42.8793 50.8124 44.2719C49.9452 46.8511 50.6249 48.0136 51.9022 48.2801C52.4764 48.4011 53.2967 48.1226 53.9061 47.8562C54.8111 47.5447 55.6644 47.0914 56.4362 46.5121C57.901 45.398 59.3178 43.8359 59.2241 41.7168C59.1889 40.7601 58.9311 39.8035 58.5913 38.8832C60.4311 38.084 62.8206 37.648 65.8674 38.0113C72.3924 38.7984 73.6698 43.0125 73.4237 44.7683C73.1776 46.5242 71.8065 47.5051 71.3495 47.7957C70.8924 48.0863 70.7518 48.1953 70.787 48.4133C70.8456 48.7281 71.0565 48.716 71.4432 48.6433C71.9823 48.5465 74.8639 47.2144 74.9928 43.957C75.1803 39.8398 71.3495 35.3109 64.5631 35.3472L64.5667 35.3497ZM14.2721 52.8719C12.117 55.3059 9.09361 56.2262 7.794 55.4512C6.39947 54.6133 6.95025 51.0313 9.60923 48.4375C11.2264 46.8633 13.3112 45.4101 14.694 44.514C15.0104 44.3203 15.4674 44.0297 16.0299 43.6785C16.1237 43.6179 16.1706 43.5937 16.1706 43.5937C16.276 43.5211 16.3932 43.4605 16.5104 43.3879C17.4819 47.0691 16.5456 50.3144 14.2721 52.8695V52.8719ZM30.0174 41.804C29.2674 43.7051 27.6866 48.5489 26.7256 48.2946C25.9053 48.0766 25.4014 44.3833 26.5616 40.7504C27.1475 38.9219 28.3897 36.7422 29.128 35.8946C30.3104 34.5262 31.6112 34.0903 31.9159 34.6352C32.326 35.3497 30.4862 40.6172 30.0174 41.804ZM43.0252 48.2219C42.7088 48.3915 42.4159 48.5004 42.2752 48.4157C42.1698 48.3551 42.4042 48.1251 42.4042 48.1251C42.4042 48.1251 44.0331 46.3208 44.6776 45.4973C45.0526 45.0129 45.4862 44.4438 45.9538 43.8141C45.9538 43.8747 45.9655 43.9352 45.9655 44.0079C45.9502 46.1754 43.9358 47.6407 43.0217 48.2219H43.0252ZM53.0542 45.8606C52.8198 45.6911 52.8549 45.1219 53.6401 43.354C53.9448 42.6637 54.6467 41.5012 55.8667 40.3872C56.0047 40.8089 56.0798 41.2499 56.0893 41.695C56.0776 44.4196 54.1909 45.4368 53.0553 45.8606H53.0542Z" fill="black"/>
</svg>
