<svg width="50" height="50" viewBox="0 0 50 50" fill="none" xmlns="http://www.w3.org/2000/svg">
<path d="M47.7131 12.1175C47.1679 9.80791 45.5615 7.98896 43.5218 7.37168C39.8247 6.25 25 6.25 25 6.25C25 6.25 10.1753 6.25 6.47821 7.37168C4.43854 7.98906 2.83212 9.80791 2.28689 12.1175C1.29626 16.3037 1.29626 25.0379 1.29626 25.0379C1.29626 25.0379 1.29626 33.7721 2.28689 37.9583C2.83212 40.2679 4.43854 42.011 6.47821 42.6283C10.1753 43.75 25 43.75 25 43.75C25 43.75 39.8246 43.75 43.5218 42.6283C45.5615 42.011 47.1679 40.2679 47.7131 37.9583C48.7037 33.7721 48.7037 25.0379 48.7037 25.0379C48.7037 25.0379 48.7037 16.3037 47.7131 12.1175ZM20.1515 32.9679V17.1079L32.542 25.0381L20.1515 32.9679Z" fill="black"/>
</svg>
